<svg class="rich-terminal" viewBox="0 0 1726 977.1999999999999" xmlns="http://www.w3.org/2000/svg">
    <!-- Generated with Rich https://www.textualize.io -->
    <style>

    @font-face {
        font-family: "Fira Code";
        src: local("FiraCode-Regular"),
                url("https://cdnjs.cloudflare.com/ajax/libs/firacode/6.2.0/woff2/FiraCode-Regular.woff2") format("woff2"),
                url("https://cdnjs.cloudflare.com/ajax/libs/firacode/6.2.0/woff/FiraCode-Regular.woff") format("woff");
        font-style: normal;
        font-weight: 400;
    }
    @font-face {
        font-family: "Fira Code";
        src: local("FiraCode-Bold"),
                url("https://cdnjs.cloudflare.com/ajax/libs/firacode/6.2.0/woff2/FiraCode-Bold.woff2") format("woff2"),
                url("https://cdnjs.cloudflare.com/ajax/libs/firacode/6.2.0/woff/FiraCode-Bold.woff") format("woff");
        font-style: bold;
        font-weight: 700;
    }

    .terminal-3077581661-matrix {
        font-family: Fira Code, monospace;
        font-size: 20px;
        line-height: 24.4px;
        font-variant-east-asian: full-width;
    }

    .terminal-3077581661-title {
        font-size: 18px;
        font-weight: bold;
        font-family: arial;
    }

    .terminal-3077581661-r1 { fill: #c5c8c6 }
.terminal-3077581661-r2 { fill: #ff3bd4;font-weight: bold }
.terminal-3077581661-r3 { fill: #00ff7f;font-weight: bold }
.terminal-3077581661-r4 { fill: #f2ecff;font-weight: bold }
.terminal-3077581661-r5 { fill: #f2ecff }
.terminal-3077581661-r6 { fill: #9d9ba1 }
    </style>

    <defs>
    <clipPath id="terminal-3077581661-clip-terminal">
      <rect x="0" y="0" width="1707.0" height="926.1999999999999" />
    </clipPath>
    <clipPath id="terminal-3077581661-line-0">
    <rect x="0" y="1.5" width="1708" height="24.65"/>
            </clipPath>
<clipPath id="terminal-3077581661-line-1">
    <rect x="0" y="25.9" width="1708" height="24.65"/>
            </clipPath>
<clipPath id="terminal-3077581661-line-2">
    <rect x="0" y="50.3" width="1708" height="24.65"/>
            </clipPath>
<clipPath id="terminal-3077581661-line-3">
    <rect x="0" y="74.7" width="1708" height="24.65"/>
            </clipPath>
<clipPath id="terminal-3077581661-line-4">
    <rect x="0" y="99.1" width="1708" height="24.65"/>
            </clipPath>
<clipPath id="terminal-3077581661-line-5">
    <rect x="0" y="123.5" width="1708" height="24.65"/>
            </clipPath>
<clipPath id="terminal-3077581661-line-6">
    <rect x="0" y="147.9" width="1708" height="24.65"/>
            </clipPath>
<clipPath id="terminal-3077581661-line-7">
    <rect x="0" y="172.3" width="1708" height="24.65"/>
            </clipPath>
<clipPath id="terminal-3077581661-line-8">
    <rect x="0" y="196.7" width="1708" height="24.65"/>
            </clipPath>
<clipPath id="terminal-3077581661-line-9">
    <rect x="0" y="221.1" width="1708" height="24.65"/>
            </clipPath>
<clipPath id="terminal-3077581661-line-10">
    <rect x="0" y="245.5" width="1708" height="24.65"/>
            </clipPath>
<clipPath id="terminal-3077581661-line-11">
    <rect x="0" y="269.9" width="1708" height="24.65"/>
            </clipPath>
<clipPath id="terminal-3077581661-line-12">
    <rect x="0" y="294.3" width="1708" height="24.65"/>
            </clipPath>
<clipPath id="terminal-3077581661-line-13">
    <rect x="0" y="318.7" width="1708" height="24.65"/>
            </clipPath>
<clipPath id="terminal-3077581661-line-14">
    <rect x="0" y="343.1" width="1708" height="24.65"/>
            </clipPath>
<clipPath id="terminal-3077581661-line-15">
    <rect x="0" y="367.5" width="1708" height="24.65"/>
            </clipPath>
<clipPath id="terminal-3077581661-line-16">
    <rect x="0" y="391.9" width="1708" height="24.65"/>
            </clipPath>
<clipPath id="terminal-3077581661-line-17">
    <rect x="0" y="416.3" width="1708" height="24.65"/>
            </clipPath>
<clipPath id="terminal-3077581661-line-18">
    <rect x="0" y="440.7" width="1708" height="24.65"/>
            </clipPath>
<clipPath id="terminal-3077581661-line-19">
    <rect x="0" y="465.1" width="1708" height="24.65"/>
            </clipPath>
<clipPath id="terminal-3077581661-line-20">
    <rect x="0" y="489.5" width="1708" height="24.65"/>
            </clipPath>
<clipPath id="terminal-3077581661-line-21">
    <rect x="0" y="513.9" width="1708" height="24.65"/>
            </clipPath>
<clipPath id="terminal-3077581661-line-22">
    <rect x="0" y="538.3" width="1708" height="24.65"/>
            </clipPath>
<clipPath id="terminal-3077581661-line-23">
    <rect x="0" y="562.7" width="1708" height="24.65"/>
            </clipPath>
<clipPath id="terminal-3077581661-line-24">
    <rect x="0" y="587.1" width="1708" height="24.65"/>
            </clipPath>
<clipPath id="terminal-3077581661-line-25">
    <rect x="0" y="611.5" width="1708" height="24.65"/>
            </clipPath>
<clipPath id="terminal-3077581661-line-26">
    <rect x="0" y="635.9" width="1708" height="24.65"/>
            </clipPath>
<clipPath id="terminal-3077581661-line-27">
    <rect x="0" y="660.3" width="1708" height="24.65"/>
            </clipPath>
<clipPath id="terminal-3077581661-line-28">
    <rect x="0" y="684.7" width="1708" height="24.65"/>
            </clipPath>
<clipPath id="terminal-3077581661-line-29">
    <rect x="0" y="709.1" width="1708" height="24.65"/>
            </clipPath>
<clipPath id="terminal-3077581661-line-30">
    <rect x="0" y="733.5" width="1708" height="24.65"/>
            </clipPath>
<clipPath id="terminal-3077581661-line-31">
    <rect x="0" y="757.9" width="1708" height="24.65"/>
            </clipPath>
<clipPath id="terminal-3077581661-line-32">
    <rect x="0" y="782.3" width="1708" height="24.65"/>
            </clipPath>
<clipPath id="terminal-3077581661-line-33">
    <rect x="0" y="806.7" width="1708" height="24.65"/>
            </clipPath>
<clipPath id="terminal-3077581661-line-34">
    <rect x="0" y="831.1" width="1708" height="24.65"/>
            </clipPath>
<clipPath id="terminal-3077581661-line-35">
    <rect x="0" y="855.5" width="1708" height="24.65"/>
            </clipPath>
<clipPath id="terminal-3077581661-line-36">
    <rect x="0" y="879.9" width="1708" height="24.65"/>
            </clipPath>
    </defs>

    <rect fill="#292929" stroke="rgba(255,255,255,0.35)" stroke-width="1" x="1" y="1" width="1724" height="975.2" rx="8"/><text class="terminal-3077581661-title" fill="#c5c8c6" text-anchor="middle" x="862" y="27">orq-arena</text>
            <g transform="translate(26,22)">
            <circle cx="0" cy="0" r="7" fill="#ff5f57"/>
            <circle cx="22" cy="0" r="7" fill="#febc2e"/>
            <circle cx="44" cy="0" r="7" fill="#28c840"/>
            </g>
        
    <g transform="translate(9, 41)" clip-path="url(#terminal-3077581661-clip-terminal)">
    <rect fill="#0b0514" x="0" y="1.5" width="1708" height="24.65" shape-rendering="crispEdges"/><rect fill="#0b0514" x="0" y="25.9" width="48.8" height="24.65" shape-rendering="crispEdges"/><rect fill="#0b0514" x="48.8" y="25.9" width="183" height="24.65" shape-rendering="crispEdges"/><rect fill="#0b0514" x="231.8" y="25.9" width="1427.4" height="24.65" shape-rendering="crispEdges"/><rect fill="#0b0514" x="1659.2" y="25.9" width="48.8" height="24.65" shape-rendering="crispEdges"/><rect fill="#0b0514" x="0" y="50.3" width="48.8" height="24.65" shape-rendering="crispEdges"/><rect fill="#0b0514" x="48.8" y="50.3" width="1610.4" height="24.65" shape-rendering="crispEdges"/><rect fill="#0b0514" x="1659.2" y="50.3" width="48.8" height="24.65" shape-rendering="crispEdges"/><rect fill="#0b0514" x="0" y="74.7" width="48.8" height="24.65" shape-rendering="crispEdges"/><rect fill="#0b0514" x="48.8" y="74.7" width="451.4" height="24.65" shape-rendering="crispEdges"/><rect fill="#0b0514" x="500.2" y="74.7" width="1159" height="24.65" shape-rendering="crispEdges"/><rect fill="#0b0514" x="1659.2" y="74.7" width="48.8" height="24.65" shape-rendering="crispEdges"/><rect fill="#0b0514" x="0" y="99.1" width="48.8" height="24.65" shape-rendering="crispEdges"/><rect fill="#0b0514" x="48.8" y="99.1" width="1610.4" height="24.65" shape-rendering="crispEdges"/><rect fill="#0b0514" x="1659.2" y="99.1" width="48.8" height="24.65" shape-rendering="crispEdges"/><rect fill="#0b0514" x="0" y="123.5" width="48.8" height="24.65" shape-rendering="crispEdges"/><rect fill="#150a22" x="48.8" y="123.5" width="73.2" height="24.65" shape-rendering="crispEdges"/><rect fill="#150a22" x="122" y="123.5" width="256.2" height="24.65" shape-rendering="crispEdges"/><rect fill="#150a22" x="378.2" y="123.5" width="73.2" height="24.65" shape-rendering="crispEdges"/><rect fill="#150a22" x="451.4" y="123.5" width="146.4" height="24.65" shape-rendering="crispEdges"/><rect fill="#150a22" x="597.8" y="123.5" width="122" height="24.65" shape-rendering="crispEdges"/><rect fill="#150a22" x="719.8" y="123.5" width="109.8" height="24.65" shape-rendering="crispEdges"/><rect fill="#150a22" x="829.6" y="123.5" width="97.6" height="24.65" shape-rendering="crispEdges"/><rect fill="#12081e" x="927.2" y="123.5" width="732" height="24.65" shape-rendering="crispEdges"/><rect fill="#0b0514" x="1659.2" y="123.5" width="48.8" height="24.65" shape-rendering="crispEdges"/><rect fill="#0b0514" x="0" y="147.9" width="48.8" height="24.65" shape-rendering="crispEdges"/><rect fill="#07475a" x="48.8" y="147.9" width="73.2" height="24.65" shape-rendering="crispEdges"/><rect fill="#0b0514" x="122" y="147.9" width="256.2" height="24.65" shape-rendering="crispEdges"/><rect fill="#0b0514" x="378.2" y="147.9" width="73.2" height="24.65" shape-rendering="crispEdges"/><rect fill="#0b0514" x="451.4" y="147.9" width="146.4" height="24.65" shape-rendering="crispEdges"/><rect fill="#0b0514" x="597.8" y="147.9" width="122" height="24.65" shape-rendering="crispEdges"/><rect fill="#0b0514" x="719.8" y="147.9" width="109.8" height="24.65" shape-rendering="crispEdges"/><rect fill="#0b0514" x="829.6" y="147.9" width="97.6" height="24.65" shape-rendering="crispEdges"/><rect fill="#0b0514" x="927.2" y="147.9" width="732" height="24.65" shape-rendering="crispEdges"/><rect fill="#0b0514" x="1659.2" y="147.9" width="48.8" height="24.65" shape-rendering="crispEdges"/><rect fill="#0b0514" x="0" y="172.3" width="48.8" height="24.65" shape-rendering="crispEdges"/><rect fill="#0b0514" x="48.8" y="172.3" width="73.2" height="24.65" shape-rendering="crispEdges"/><rect fill="#0b0514" x="122" y="172.3" width="256.2" height="24.65" shape-rendering="crispEdges"/><rect fill="#0b0514" x="378.2" y="172.3" width="73.2" height="24.65" shape-rendering="crispEdges"/><rect fill="#0b0514" x="451.4" y="172.3" width="146.4" height="24.65" shape-rendering="crispEdges"/><rect fill="#0b0514" x="597.8" y="172.3" width="122" height="24.65" shape-rendering="crispEdges"/><rect fill="#0b0514" x="719.8" y="172.3" width="109.8" height="24.65" shape-rendering="crispEdges"/><rect fill="#0b0514" x="829.6" y="172.3" width="97.6" height="24.65" shape-rendering="crispEdges"/><rect fill="#0b0514" x="927.2" y="172.3" width="732" height="24.65" shape-rendering="crispEdges"/><rect fill="#0b0514" x="1659.2" y="172.3" width="48.8" height="24.65" shape-rendering="crispEdges"/><rect fill="#0b0514" x="0" y="196.7" width="48.8" height="24.65" shape-rendering="crispEdges"/><rect fill="#0b0514" x="48.8" y="196.7" width="73.2" height="24.65" shape-rendering="crispEdges"/><rect fill="#0b0514" x="122" y="196.7" width="256.2" height="24.65" shape-rendering="crispEdges"/><rect fill="#0b0514" x="378.2" y="196.7" width="73.2" height="24.65" shape-rendering="crispEdges"/><rect fill="#0b0514" x="451.4" y="196.7" width="146.4" height="24.65" shape-rendering="crispEdges"/><rect fill="#0b0514" x="597.8" y="196.7" width="122" height="24.65" shape-rendering="crispEdges"/><rect fill="#0b0514" x="719.8" y="196.7" width="109.8" height="24.65" shape-rendering="crispEdges"/><rect fill="#0b0514" x="829.6" y="196.7" width="97.6" height="24.65" shape-rendering="crispEdges"/><rect fill="#0b0514" x="927.2" y="196.7" width="732" height="24.65" shape-rendering="crispEdges"/><rect fill="#0b0514" x="1659.2" y="196.7" width="48.8" height="24.65" shape-rendering="crispEdges"/><rect fill="#0b0514" x="0" y="221.1" width="48.8" height="24.65" shape-rendering="crispEdges"/><rect fill="#0b0514" x="48.8" y="221.1" width="73.2" height="24.65" shape-rendering="crispEdges"/><rect fill="#0b0514" x="122" y="221.1" width="256.2" height="24.65" shape-rendering="crispEdges"/><rect fill="#0b0514" x="378.2" y="221.1" width="73.2" height="24.65" shape-rendering="crispEdges"/><rect fill="#0b0514" x="451.4" y="221.1" width="146.4" height="24.65" shape-rendering="crispEdges"/><rect fill="#0b0514" x="597.8" y="221.1" width="122" height="24.65" shape-rendering="crispEdges"/><rect fill="#0b0514" x="719.8" y="221.1" width="109.8" height="24.65" shape-rendering="crispEdges"/><rect fill="#0b0514" x="829.6" y="221.1" width="97.6" height="24.65" shape-rendering="crispEdges"/><rect fill="#0b0514" x="927.2" y="221.1" width="732" height="24.65" shape-rendering="crispEdges"/><rect fill="#0b0514" x="1659.2" y="221.1" width="48.8" height="24.65" shape-rendering="crispEdges"/><rect fill="#0b0514" x="0" y="245.5" width="48.8" height="24.65" shape-rendering="crispEdges"/><rect fill="#0b0514" x="48.8" y="245.5" width="1610.4" height="24.65" shape-rendering="crispEdges"/><rect fill="#0b0514" x="1659.2" y="245.5" width="48.8" height="24.65" shape-rendering="crispEdges"/><rect fill="#0b0514" x="0" y="269.9" width="48.8" height="24.65" shape-rendering="crispEdges"/><rect fill="#0b0514" x="48.8" y="269.9" width="1232.2" height="24.65" shape-rendering="crispEdges"/><rect fill="#0b0514" x="1281" y="269.9" width="378.2" height="24.65" shape-rendering="crispEdges"/><rect fill="#0b0514" x="1659.2" y="269.9" width="48.8" height="24.65" shape-rendering="crispEdges"/><rect fill="#0b0514" x="0" y="294.3" width="48.8" height="24.65" shape-rendering="crispEdges"/><rect fill="#0b0514" x="48.8" y="294.3" width="1610.4" height="24.65" shape-rendering="crispEdges"/><rect fill="#0b0514" x="1659.2" y="294.3" width="48.8" height="24.65" shape-rendering="crispEdges"/><rect fill="#0b0514" x="0" y="318.7" width="48.8" height="24.65" shape-rendering="crispEdges"/><rect fill="#0b0514" x="48.8" y="318.7" width="1329.8" height="24.65" shape-rendering="crispEdges"/><rect fill="#0b0514" x="1378.6" y="318.7" width="280.6" height="24.65" shape-rendering="crispEdges"/><rect fill="#0b0514" x="1659.2" y="318.7" width="48.8" height="24.65" shape-rendering="crispEdges"/><rect fill="#0b0514" x="0" y="343.1" width="48.8" height="24.65" shape-rendering="crispEdges"/><rect fill="#0b0514" x="48.8" y="343.1" width="1610.4" height="24.65" shape-rendering="crispEdges"/><rect fill="#0b0514" x="1659.2" y="343.1" width="48.8" height="24.65" shape-rendering="crispEdges"/><rect fill="#0b0514" x="0" y="367.5" width="48.8" height="24.65" shape-rendering="crispEdges"/><rect fill="#0b0514" x="48.8" y="367.5" width="414.8" height="24.65" shape-rendering="crispEdges"/><rect fill="#0b0514" x="463.6" y="367.5" width="1195.6" height="24.65" shape-rendering="crispEdges"/><rect fill="#0b0514" x="1659.2" y="367.5" width="48.8" height="24.65" shape-rendering="crispEdges"/><rect fill="#0b0514" x="0" y="391.9" width="48.8" height="24.65" shape-rendering="crispEdges"/><rect fill="#0b0514" x="48.8" y="391.9" width="1610.4" height="24.65" shape-rendering="crispEdges"/><rect fill="#0b0514" x="1659.2" y="391.9" width="48.8" height="24.65" shape-rendering="crispEdges"/><rect fill="#0b0514" x="0" y="416.3" width="48.8" height="24.65" shape-rendering="crispEdges"/><rect fill="#150a22" x="48.8" y="416.3" width="329.4" height="24.65" shape-rendering="crispEdges"/><rect fill="#150a22" x="378.2" y="416.3" width="97.6" height="24.65" shape-rendering="crispEdges"/><rect fill="#150a22" x="475.8" y="416.3" width="97.6" height="24.65" shape-rendering="crispEdges"/><rect fill="#150a22" x="573.4" y="416.3" width="134.2" height="24.65" shape-rendering="crispEdges"/><rect fill="#150a22" x="707.6" y="416.3" width="122" height="24.65" shape-rendering="crispEdges"/><rect fill="#12081e" x="829.6" y="416.3" width="829.6" height="24.65" shape-rendering="crispEdges"/><rect fill="#0b0514" x="1659.2" y="416.3" width="48.8" height="24.65" shape-rendering="crispEdges"/><rect fill="#0b0514" x="0" y="440.7" width="48.8" height="24.65" shape-rendering="crispEdges"/><rect fill="#07475a" x="48.8" y="440.7" width="329.4" height="24.65" shape-rendering="crispEdges"/><rect fill="#0b0514" x="378.2" y="440.7" width="97.6" height="24.65" shape-rendering="crispEdges"/><rect fill="#0b0514" x="475.8" y="440.7" width="97.6" height="24.65" shape-rendering="crispEdges"/><rect fill="#0b0514" x="573.4" y="440.7" width="134.2" height="24.65" shape-rendering="crispEdges"/><rect fill="#0b0514" x="707.6" y="440.7" width="122" height="24.65" shape-rendering="crispEdges"/><rect fill="#0b0514" x="829.6" y="440.7" width="829.6" height="24.65" shape-rendering="crispEdges"/><rect fill="#0b0514" x="1659.2" y="440.7" width="48.8" height="24.65" shape-rendering="crispEdges"/><rect fill="#0b0514" x="0" y="465.1" width="48.8" height="24.65" shape-rendering="crispEdges"/><rect fill="#0b0514" x="48.8" y="465.1" width="329.4" height="24.65" shape-rendering="crispEdges"/><rect fill="#0b0514" x="378.2" y="465.1" width="97.6" height="24.65" shape-rendering="crispEdges"/><rect fill="#0b0514" x="475.8" y="465.1" width="97.6" height="24.65" shape-rendering="crispEdges"/><rect fill="#0b0514" x="573.4" y="465.1" width="134.2" height="24.65" shape-rendering="crispEdges"/><rect fill="#0b0514" x="707.6" y="465.1" width="122" height="24.65" shape-rendering="crispEdges"/><rect fill="#0b0514" x="829.6" y="465.1" width="829.6" height="24.65" shape-rendering="crispEdges"/><rect fill="#0b0514" x="1659.2" y="465.1" width="48.8" height="24.65" shape-rendering="crispEdges"/><rect fill="#0b0514" x="0" y="489.5" width="48.8" height="24.65" shape-rendering="crispEdges"/><rect fill="#0b0514" x="48.8" y="489.5" width="329.4" height="24.65" shape-rendering="crispEdges"/><rect fill="#0b0514" x="378.2" y="489.5" width="97.6" height="24.65" shape-rendering="crispEdges"/><rect fill="#0b0514" x="475.8" y="489.5" width="97.6" height="24.65" shape-rendering="crispEdges"/><rect fill="#0b0514" x="573.4" y="489.5" width="134.2" height="24.65" shape-rendering="crispEdges"/><rect fill="#0b0514" x="707.6" y="489.5" width="122" height="24.65" shape-rendering="crispEdges"/><rect fill="#0b0514" x="829.6" y="489.5" width="829.6" height="24.65" shape-rendering="crispEdges"/><rect fill="#0b0514" x="1659.2" y="489.5" width="48.8" height="24.65" shape-rendering="crispEdges"/><rect fill="#0b0514" x="0" y="513.9" width="48.8" height="24.65" shape-rendering="crispEdges"/><rect fill="#0b0514" x="48.8" y="513.9" width="1610.4" height="24.65" shape-rendering="crispEdges"/><rect fill="#0b0514" x="1659.2" y="513.9" width="48.8" height="24.65" shape-rendering="crispEdges"/><rect fill="#0b0514" x="0" y="538.3" width="48.8" height="24.65" shape-rendering="crispEdges"/><rect fill="#0b0514" x="48.8" y="538.3" width="122" height="24.65" shape-rendering="crispEdges"/><rect fill="#0b0514" x="170.8" y="538.3" width="36.6" height="24.65" shape-rendering="crispEdges"/><rect fill="#0b0514" x="207.4" y="538.3" width="1439.6" height="24.65" shape-rendering="crispEdges"/><rect fill="#0b0514" x="1647" y="538.3" width="12.2" height="24.65" shape-rendering="crispEdges"/><rect fill="#0b0514" x="1659.2" y="538.3" width="48.8" height="24.65" shape-rendering="crispEdges"/><rect fill="#0b0514" x="0" y="562.7" width="48.8" height="24.65" shape-rendering="crispEdges"/><rect fill="#0b0514" x="48.8" y="562.7" width="1085.8" height="24.65" shape-rendering="crispEdges"/><rect fill="#0b0514" x="1134.6" y="562.7" width="524.6" height="24.65" shape-rendering="crispEdges"/><rect fill="#0b0514" x="1659.2" y="562.7" width="48.8" height="24.65" shape-rendering="crispEdges"/><rect fill="#0b0514" x="0" y="587.1" width="48.8" height="24.65" shape-rendering="crispEdges"/><rect fill="#0b0514" x="48.8" y="587.1" width="1610.4" height="24.65" shape-rendering="crispEdges"/><rect fill="#0b0514" x="1659.2" y="587.1" width="48.8" height="24.65" shape-rendering="crispEdges"/><rect fill="#0b0514" x="0" y="611.5" width="48.8" height="24.65" shape-rendering="crispEdges"/><rect fill="#0b0514" x="48.8" y="611.5" width="451.4" height="24.65" shape-rendering="crispEdges"/><rect fill="#0b0514" x="500.2" y="611.5" width="1159" height="24.65" shape-rendering="crispEdges"/><rect fill="#0b0514" x="1659.2" y="611.5" width="48.8" height="24.65" shape-rendering="crispEdges"/><rect fill="#0b0514" x="0" y="635.9" width="48.8" height="24.65" shape-rendering="crispEdges"/><rect fill="#0b0514" x="48.8" y="635.9" width="1610.4" height="24.65" shape-rendering="crispEdges"/><rect fill="#0b0514" x="1659.2" y="635.9" width="48.8" height="24.65" shape-rendering="crispEdges"/><rect fill="#0b0514" x="0" y="660.3" width="48.8" height="24.65" shape-rendering="crispEdges"/><rect fill="#150a22" x="48.8" y="660.3" width="122" height="24.65" shape-rendering="crispEdges"/><rect fill="#150a22" x="170.8" y="660.3" width="122" height="24.65" shape-rendering="crispEdges"/><rect fill="#150a22" x="292.8" y="660.3" width="122" height="24.65" shape-rendering="crispEdges"/><rect fill="#150a22" x="414.8" y="660.3" width="122" height="24.65" shape-rendering="crispEdges"/><rect fill="#150a22" x="536.8" y="660.3" width="122" height="24.65" shape-rendering="crispEdges"/><rect fill="#12081e" x="658.8" y="660.3" width="1000.4" height="24.65" shape-rendering="crispEdges"/><rect fill="#0b0514" x="1659.2" y="660.3" width="48.8" height="24.65" shape-rendering="crispEdges"/><rect fill="#0b0514" x="0" y="684.7" width="48.8" height="24.65" shape-rendering="crispEdges"/><rect fill="#07475a" x="48.8" y="684.7" width="122" height="24.65" shape-rendering="crispEdges"/><rect fill="#0b0514" x="170.8" y="684.7" width="122" height="24.65" shape-rendering="crispEdges"/><rect fill="#0b0514" x="292.8" y="684.7" width="122" height="24.65" shape-rendering="crispEdges"/><rect fill="#0b0514" x="414.8" y="684.7" width="122" height="24.65" shape-rendering="crispEdges"/><rect fill="#0b0514" x="536.8" y="684.7" width="122" height="24.65" shape-rendering="crispEdges"/><rect fill="#0b0514" x="658.8" y="684.7" width="1000.4" height="24.65" shape-rendering="crispEdges"/><rect fill="#0b0514" x="1659.2" y="684.7" width="48.8" height="24.65" shape-rendering="crispEdges"/><rect fill="#0b0514" x="0" y="709.1" width="48.8" height="24.65" shape-rendering="crispEdges"/><rect fill="#0b0514" x="48.8" y="709.1" width="122" height="24.65" shape-rendering="crispEdges"/><rect fill="#0b0514" x="170.8" y="709.1" width="122" height="24.65" shape-rendering="crispEdges"/><rect fill="#0b0514" x="292.8" y="709.1" width="122" height="24.65" shape-rendering="crispEdges"/><rect fill="#0b0514" x="414.8" y="709.1" width="122" height="24.65" shape-rendering="crispEdges"/><rect fill="#0b0514" x="536.8" y="709.1" width="122" height="24.65" shape-rendering="crispEdges"/><rect fill="#0b0514" x="658.8" y="709.1" width="1000.4" height="24.65" shape-rendering="crispEdges"/><rect fill="#0b0514" x="1659.2" y="709.1" width="48.8" height="24.65" shape-rendering="crispEdges"/><rect fill="#0b0514" x="0" y="733.5" width="48.8" height="24.65" shape-rendering="crispEdges"/><rect fill="#0b0514" x="48.8" y="733.5" width="122" height="24.65" shape-rendering="crispEdges"/><rect fill="#0b0514" x="170.8" y="733.5" width="122" height="24.65" shape-rendering="crispEdges"/><rect fill="#0b0514" x="292.8" y="733.5" width="122" height="24.65" shape-rendering="crispEdges"/><rect fill="#0b0514" x="414.8" y="733.5" width="122" height="24.65" shape-rendering="crispEdges"/><rect fill="#0b0514" x="536.8" y="733.5" width="122" height="24.65" shape-rendering="crispEdges"/><rect fill="#0b0514" x="658.8" y="733.5" width="1000.4" height="24.65" shape-rendering="crispEdges"/><rect fill="#0b0514" x="1659.2" y="733.5" width="48.8" height="24.65" shape-rendering="crispEdges"/><rect fill="#0b0514" x="0" y="757.9" width="48.8" height="24.65" shape-rendering="crispEdges"/><rect fill="#0b0514" x="48.8" y="757.9" width="122" height="24.65" shape-rendering="crispEdges"/><rect fill="#0b0514" x="170.8" y="757.9" width="122" height="24.65" shape-rendering="crispEdges"/><rect fill="#0b0514" x="292.8" y="757.9" width="122" height="24.65" shape-rendering="crispEdges"/><rect fill="#0b0514" x="414.8" y="757.9" width="122" height="24.65" shape-rendering="crispEdges"/><rect fill="#0b0514" x="536.8" y="757.9" width="122" height="24.65" shape-rendering="crispEdges"/><rect fill="#0b0514" x="658.8" y="757.9" width="1000.4" height="24.65" shape-rendering="crispEdges"/><rect fill="#0b0514" x="1659.2" y="757.9" width="48.8" height="24.65" shape-rendering="crispEdges"/><rect fill="#0b0514" x="0" y="782.3" width="48.8" height="24.65" shape-rendering="crispEdges"/><rect fill="#0b0514" x="48.8" y="782.3" width="902.8" height="24.65" shape-rendering="crispEdges"/><rect fill="#0b0514" x="951.6" y="782.3" width="707.6" height="24.65" shape-rendering="crispEdges"/><rect fill="#0b0514" x="1659.2" y="782.3" width="48.8" height="24.65" shape-rendering="crispEdges"/><rect fill="#0b0514" x="0" y="806.7" width="48.8" height="24.65" shape-rendering="crispEdges"/><rect fill="#0b0514" x="48.8" y="806.7" width="1610.4" height="24.65" shape-rendering="crispEdges"/><rect fill="#0b0514" x="1659.2" y="806.7" width="48.8" height="24.65" shape-rendering="crispEdges"/><rect fill="#0b0514" x="0" y="831.1" width="48.8" height="24.65" shape-rendering="crispEdges"/><rect fill="#0b0514" x="48.8" y="831.1" width="536.8" height="24.65" shape-rendering="crispEdges"/><rect fill="#0b0514" x="585.6" y="831.1" width="1073.6" height="24.65" shape-rendering="crispEdges"/><rect fill="#0b0514" x="1659.2" y="831.1" width="48.8" height="24.65" shape-rendering="crispEdges"/><rect fill="#0b0514" x="0" y="855.5" width="48.8" height="24.65" shape-rendering="crispEdges"/><rect fill="#0b0514" x="48.8" y="855.5" width="1610.4" height="24.65" shape-rendering="crispEdges"/><rect fill="#0b0514" x="1659.2" y="855.5" width="48.8" height="24.65" shape-rendering="crispEdges"/><rect fill="#0b0514" x="0" y="879.9" width="48.8" height="24.65" shape-rendering="crispEdges"/><rect fill="#0b0514" x="48.8" y="879.9" width="1610.4" height="24.65" shape-rendering="crispEdges"/><rect fill="#0b0514" x="1659.2" y="879.9" width="48.8" height="24.65" shape-rendering="crispEdges"/><rect fill="#0b0514" x="0" y="904.3" width="1708" height="24.65" shape-rendering="crispEdges"/>
    <g class="terminal-3077581661-matrix">
    <text class="terminal-3077581661-r1" x="1708" y="20" textLength="12.2" clip-path="url(#terminal-3077581661-line-0)">
</text><text class="terminal-3077581661-r2" x="48.8" y="44.4" textLength="183" clip-path="url(#terminal-3077581661-line-1)">FINAL&#160;STANDINGS</text><text class="terminal-3077581661-r1" x="1708" y="44.4" textLength="12.2" clip-path="url(#terminal-3077581661-line-1)">
</text><text class="terminal-3077581661-r1" x="1708" y="68.8" textLength="12.2" clip-path="url(#terminal-3077581661-line-2)">
</text><text class="terminal-3077581661-r3" x="48.8" y="93.2" textLength="439.2" clip-path="url(#terminal-3077581661-line-3)">🏆&#160;Leaderboard&#160;king:&#160;gemini-3.5-flash</text><text class="terminal-3077581661-r1" x="1708" y="93.2" textLength="12.2" clip-path="url(#terminal-3077581661-line-3)">
</text><text class="terminal-3077581661-r1" x="1708" y="117.6" textLength="12.2" clip-path="url(#terminal-3077581661-line-4)">
</text><text class="terminal-3077581661-r4" x="48.8" y="142" textLength="73.2" clip-path="url(#terminal-3077581661-line-5)">&#160;Rank&#160;</text><text class="terminal-3077581661-r4" x="122" y="142" textLength="256.2" clip-path="url(#terminal-3077581661-line-5)">&#160;Model&#160;&#160;&#160;&#160;&#160;&#160;&#160;&#160;&#160;&#160;&#160;&#160;&#160;&#160;&#160;</text><text class="terminal-3077581661-r4" x="378.2" y="142" textLength="73.2" clip-path="url(#terminal-3077581661-line-5)">&#160;ELO&#160;&#160;</text><text class="terminal-3077581661-r4" x="451.4" y="142" textLength="146.4" clip-path="url(#terminal-3077581661-line-5)">&#160;95%&#160;CI&#160;&#160;&#160;&#160;&#160;</text><text class="terminal-3077581661-r4" x="597.8" y="142" textLength="122" clip-path="url(#terminal-3077581661-line-5)">&#160;len-ctrl&#160;</text><text class="terminal-3077581661-r4" x="719.8" y="142" textLength="109.8" clip-path="url(#terminal-3077581661-line-5)">&#160;avg&#160;tok&#160;</text><text class="terminal-3077581661-r4" x="829.6" y="142" textLength="85.4" clip-path="url(#terminal-3077581661-line-5)">&#160;🧠&#160;tok&#160;</text><text class="terminal-3077581661-r1" x="1708" y="142" textLength="12.2" clip-path="url(#terminal-3077581661-line-5)">
</text><text class="terminal-3077581661-r5" x="48.8" y="166.4" textLength="73.2" clip-path="url(#terminal-3077581661-line-6)">&#160;1&#160;&#160;&#160;&#160;</text><text class="terminal-3077581661-r5" x="122" y="166.4" textLength="256.2" clip-path="url(#terminal-3077581661-line-6)">&#160;gemini-3.5-flash&#160;&#160;&#160;&#160;</text><text class="terminal-3077581661-r5" x="378.2" y="166.4" textLength="73.2" clip-path="url(#terminal-3077581661-line-6)">&#160;1572&#160;</text><text class="terminal-3077581661-r5" x="451.4" y="166.4" textLength="146.4" clip-path="url(#terminal-3077581661-line-6)">&#160;1259–5000&#160;&#160;</text><text class="terminal-3077581661-r5" x="597.8" y="166.4" textLength="122" clip-path="url(#terminal-3077581661-line-6)">&#160;1301&#160;&#160;&#160;&#160;&#160;</text><text class="terminal-3077581661-r5" x="719.8" y="166.4" textLength="109.8" clip-path="url(#terminal-3077581661-line-6)">&#160;1003&#160;&#160;&#160;&#160;</text><text class="terminal-3077581661-r5" x="829.6" y="166.4" textLength="97.6" clip-path="url(#terminal-3077581661-line-6)">&#160;0&#160;&#160;&#160;&#160;&#160;&#160;</text><text class="terminal-3077581661-r1" x="1708" y="166.4" textLength="12.2" clip-path="url(#terminal-3077581661-line-6)">
</text><text class="terminal-3077581661-r5" x="48.8" y="190.8" textLength="73.2" clip-path="url(#terminal-3077581661-line-7)">&#160;2&#160;&#160;&#160;&#160;</text><text class="terminal-3077581661-r5" x="122" y="190.8" textLength="256.2" clip-path="url(#terminal-3077581661-line-7)">&#160;claude-sonnet-4-6&#160;&#160;&#160;</text><text class="terminal-3077581661-r5" x="378.2" y="190.8" textLength="73.2" clip-path="url(#terminal-3077581661-line-7)">&#160;1572&#160;</text><text class="terminal-3077581661-r5" x="451.4" y="190.8" textLength="146.4" clip-path="url(#terminal-3077581661-line-7)">&#160;1238–4803&#160;&#160;</text><text class="terminal-3077581661-r5" x="597.8" y="190.8" textLength="122" clip-path="url(#terminal-3077581661-line-7)">&#160;1371&#160;&#160;&#160;&#160;&#160;</text><text class="terminal-3077581661-r5" x="719.8" y="190.8" textLength="109.8" clip-path="url(#terminal-3077581661-line-7)">&#160;1011&#160;&#160;&#160;&#160;</text><text class="terminal-3077581661-r5" x="829.6" y="190.8" textLength="97.6" clip-path="url(#terminal-3077581661-line-7)">&#160;0&#160;&#160;&#160;&#160;&#160;&#160;</text><text class="terminal-3077581661-r1" x="1708" y="190.8" textLength="12.2" clip-path="url(#terminal-3077581661-line-7)">
</text><text class="terminal-3077581661-r5" x="48.8" y="215.2" textLength="73.2" clip-path="url(#terminal-3077581661-line-8)">&#160;3&#160;&#160;&#160;&#160;</text><text class="terminal-3077581661-r5" x="122" y="215.2" textLength="256.2" clip-path="url(#terminal-3077581661-line-8)">&#160;gpt-5.4-mini&#160;&#160;&#160;&#160;&#160;&#160;&#160;&#160;</text><text class="terminal-3077581661-r5" x="378.2" y="215.2" textLength="73.2" clip-path="url(#terminal-3077581661-line-8)">&#160;489&#160;&#160;</text><text class="terminal-3077581661-r5" x="451.4" y="215.2" textLength="146.4" clip-path="url(#terminal-3077581661-line-8)">&#160;-3000–1810&#160;</text><text class="terminal-3077581661-r5" x="597.8" y="215.2" textLength="122" clip-path="url(#terminal-3077581661-line-8)">&#160;717&#160;&#160;&#160;&#160;&#160;&#160;</text><text class="terminal-3077581661-r5" x="719.8" y="215.2" textLength="109.8" clip-path="url(#terminal-3077581661-line-8)">&#160;674&#160;&#160;&#160;&#160;&#160;</text><text class="terminal-3077581661-r5" x="829.6" y="215.2" textLength="97.6" clip-path="url(#terminal-3077581661-line-8)">&#160;0&#160;&#160;&#160;&#160;&#160;&#160;</text><text class="terminal-3077581661-r1" x="1708" y="215.2" textLength="12.2" clip-path="url(#terminal-3077581661-line-8)">
</text><text class="terminal-3077581661-r5" x="48.8" y="239.6" textLength="73.2" clip-path="url(#terminal-3077581661-line-9)">&#160;4&#160;&#160;&#160;&#160;</text><text class="terminal-3077581661-r5" x="122" y="239.6" textLength="256.2" clip-path="url(#terminal-3077581661-line-9)">&#160;mistral-medium-2604&#160;</text><text class="terminal-3077581661-r5" x="378.2" y="239.6" textLength="73.2" clip-path="url(#terminal-3077581661-line-9)">&#160;367&#160;&#160;</text><text class="terminal-3077581661-r5" x="451.4" y="239.6" textLength="146.4" clip-path="url(#terminal-3077581661-line-9)">&#160;-3000–1686&#160;</text><text class="terminal-3077581661-r5" x="597.8" y="239.6" textLength="122" clip-path="url(#terminal-3077581661-line-9)">&#160;611&#160;&#160;&#160;&#160;&#160;&#160;</text><text class="terminal-3077581661-r5" x="719.8" y="239.6" textLength="109.8" clip-path="url(#terminal-3077581661-line-9)">&#160;733&#160;&#160;&#160;&#160;&#160;</text><text class="terminal-3077581661-r5" x="829.6" y="239.6" textLength="97.6" clip-path="url(#terminal-3077581661-line-9)">&#160;0&#160;&#160;&#160;&#160;&#160;&#160;</text><text class="terminal-3077581661-r1" x="1708" y="239.6" textLength="12.2" clip-path="url(#terminal-3077581661-line-9)">
</text><text class="terminal-3077581661-r1" x="1708" y="264" textLength="12.2" clip-path="url(#terminal-3077581661-line-10)">
</text><text class="terminal-3077581661-r2" x="48.8" y="288.4" textLength="1232.2" clip-path="url(#terminal-3077581661-line-11)">style&#160;control:&#160;jury&#160;length&#160;coefficient&#160;+2.33&#160;(leaned&#160;longer);&#160;len-ctrl&#160;ELO&#160;prices&#160;that&#160;preference&#160;out</text><text class="terminal-3077581661-r1" x="1708" y="288.4" textLength="12.2" clip-path="url(#terminal-3077581661-line-11)">
</text><text class="terminal-3077581661-r1" x="1708" y="312.8" textLength="12.2" clip-path="url(#terminal-3077581661-line-12)">
</text><text class="terminal-3077581661-r2" x="48.8" y="337.2" textLength="1329.8" clip-path="url(#terminal-3077581661-line-13)">tokens,&#160;models&#160;1,728&#160;in&#160;/&#160;51,324&#160;out&#160;&#160;&#160;·&#160;&#160;&#160;jury&#160;349,228&#160;in&#160;/&#160;23,643&#160;out&#160;&#160;&#160;(88%&#160;of&#160;all&#160;tokens&#160;went&#160;to&#160;judging)</text><text class="terminal-3077581661-r1" x="1708" y="337.2" textLength="12.2" clip-path="url(#terminal-3077581661-line-13)">
</text><text class="terminal-3077581661-r1" x="1708" y="361.6" textLength="12.2" clip-path="url(#terminal-3077581661-line-14)">
</text><text class="terminal-3077581661-r2" x="48.8" y="386" textLength="414.8" clip-path="url(#terminal-3077581661-line-15)">THE&#160;JURY&#160;ROOM,&#160;per-judge&#160;behaviour</text><text class="terminal-3077581661-r1" x="1708" y="386" textLength="12.2" clip-path="url(#terminal-3077581661-line-15)">
</text><text class="terminal-3077581661-r1" x="1708" y="410.4" textLength="12.2" clip-path="url(#terminal-3077581661-line-16)">
</text><text class="terminal-3077581661-r4" x="48.8" y="434.8" textLength="329.4" clip-path="url(#terminal-3077581661-line-17)">&#160;Judge&#160;&#160;&#160;&#160;&#160;&#160;&#160;&#160;&#160;&#160;&#160;&#160;&#160;&#160;&#160;&#160;&#160;&#160;&#160;&#160;&#160;</text><text class="terminal-3077581661-r4" x="378.2" y="434.8" textLength="97.6" clip-path="url(#terminal-3077581661-line-17)">&#160;A-lean&#160;</text><text class="terminal-3077581661-r4" x="475.8" y="434.8" textLength="97.6" clip-path="url(#terminal-3077581661-line-17)">&#160;B-lean&#160;</text><text class="terminal-3077581661-r4" x="573.4" y="434.8" textLength="134.2" clip-path="url(#terminal-3077581661-line-17)">&#160;flip&#160;rate&#160;</text><text class="terminal-3077581661-r4" x="707.6" y="434.8" textLength="122" clip-path="url(#terminal-3077581661-line-17)">&#160;tie&#160;rate&#160;</text><text class="terminal-3077581661-r1" x="1708" y="434.8" textLength="12.2" clip-path="url(#terminal-3077581661-line-17)">
</text><text class="terminal-3077581661-r5" x="48.8" y="459.2" textLength="329.4" clip-path="url(#terminal-3077581661-line-18)">&#160;claude-haiku-4-5-20251001&#160;</text><text class="terminal-3077581661-r5" x="378.2" y="459.2" textLength="97.6" clip-path="url(#terminal-3077581661-line-18)">&#160;48%&#160;&#160;&#160;&#160;</text><text class="terminal-3077581661-r5" x="475.8" y="459.2" textLength="97.6" clip-path="url(#terminal-3077581661-line-18)">&#160;52%&#160;&#160;&#160;&#160;</text><text class="terminal-3077581661-r5" x="573.4" y="459.2" textLength="134.2" clip-path="url(#terminal-3077581661-line-18)">&#160;23%&#160;&#160;&#160;&#160;&#160;&#160;&#160;</text><text class="terminal-3077581661-r5" x="707.6" y="459.2" textLength="122" clip-path="url(#terminal-3077581661-line-18)">&#160;0%&#160;&#160;&#160;&#160;&#160;&#160;&#160;</text><text class="terminal-3077581661-r1" x="1708" y="459.2" textLength="12.2" clip-path="url(#terminal-3077581661-line-18)">
</text><text class="terminal-3077581661-r5" x="48.8" y="483.6" textLength="329.4" clip-path="url(#terminal-3077581661-line-19)">&#160;gemini-2.5-flash-lite&#160;&#160;&#160;&#160;&#160;</text><text class="terminal-3077581661-r5" x="378.2" y="483.6" textLength="97.6" clip-path="url(#terminal-3077581661-line-19)">&#160;64%&#160;&#160;&#160;&#160;</text><text class="terminal-3077581661-r5" x="475.8" y="483.6" textLength="97.6" clip-path="url(#terminal-3077581661-line-19)">&#160;36%&#160;&#160;&#160;&#160;</text><text class="terminal-3077581661-r5" x="573.4" y="483.6" textLength="134.2" clip-path="url(#terminal-3077581661-line-19)">&#160;23%&#160;&#160;&#160;&#160;&#160;&#160;&#160;</text><text class="terminal-3077581661-r5" x="707.6" y="483.6" textLength="122" clip-path="url(#terminal-3077581661-line-19)">&#160;3%&#160;&#160;&#160;&#160;&#160;&#160;&#160;</text><text class="terminal-3077581661-r1" x="1708" y="483.6" textLength="12.2" clip-path="url(#terminal-3077581661-line-19)">
</text><text class="terminal-3077581661-r5" x="48.8" y="508" textLength="329.4" clip-path="url(#terminal-3077581661-line-20)">&#160;gpt-5.4-nano&#160;&#160;&#160;&#160;&#160;&#160;&#160;&#160;&#160;&#160;&#160;&#160;&#160;&#160;</text><text class="terminal-3077581661-r5" x="378.2" y="508" textLength="97.6" clip-path="url(#terminal-3077581661-line-20)">&#160;55%&#160;&#160;&#160;&#160;</text><text class="terminal-3077581661-r5" x="475.8" y="508" textLength="97.6" clip-path="url(#terminal-3077581661-line-20)">&#160;45%&#160;&#160;&#160;&#160;</text><text class="terminal-3077581661-r5" x="573.4" y="508" textLength="134.2" clip-path="url(#terminal-3077581661-line-20)">&#160;63%&#160;&#160;&#160;&#160;&#160;&#160;&#160;</text><text class="terminal-3077581661-r5" x="707.6" y="508" textLength="122" clip-path="url(#terminal-3077581661-line-20)">&#160;0%&#160;&#160;&#160;&#160;&#160;&#160;&#160;</text><text class="terminal-3077581661-r1" x="1708" y="508" textLength="12.2" clip-path="url(#terminal-3077581661-line-20)">
</text><text class="terminal-3077581661-r1" x="1708" y="532.4" textLength="12.2" clip-path="url(#terminal-3077581661-line-21)">
</text><text class="terminal-3077581661-r2" x="48.8" y="556.8" textLength="122" clip-path="url(#terminal-3077581661-line-22)">Fleiss&#x27;&#160;κ&#160;</text><text class="terminal-3077581661-r2" x="170.8" y="556.8" textLength="36.6" clip-path="url(#terminal-3077581661-line-22)">1.0</text><text class="terminal-3077581661-r2" x="207.4" y="556.8" textLength="1439.6" clip-path="url(#terminal-3077581661-line-22)">&#160;(almost&#160;perfect)&#160;over&#160;8/30&#160;full-panel&#160;rounds&#160;&#160;&#160;·&#160;&#160;&#160;pairwise:&#160;claude-haiku-4-5-20251001&#160;×&#160;gemini-2.5-flash-lite:&#160;0.789</text><text class="terminal-3077581661-r1" x="1708" y="556.8" textLength="12.2" clip-path="url(#terminal-3077581661-line-22)">
</text><text class="terminal-3077581661-r2" x="48.8" y="581.2" textLength="1085.8" clip-path="url(#terminal-3077581661-line-23)">claude-haiku-4-5-20251001&#160;×&#160;gpt-5.4-nano:&#160;1.0&#160;&#160;&#160;gemini-2.5-flash-lite&#160;×&#160;gpt-5.4-nano:&#160;1.0</text><text class="terminal-3077581661-r1" x="1708" y="581.2" textLength="12.2" clip-path="url(#terminal-3077581661-line-23)">
</text><text class="terminal-3077581661-r1" x="1708" y="605.6" textLength="12.2" clip-path="url(#terminal-3077581661-line-24)">
</text><text class="terminal-3077581661-r2" x="48.8" y="630" textLength="451.4" clip-path="url(#terminal-3077581661-line-25)">WIN&#160;GRID,&#160;row&#160;beats&#160;column&#160;(ties&#160;=&#160;½)</text><text class="terminal-3077581661-r1" x="1708" y="630" textLength="12.2" clip-path="url(#terminal-3077581661-line-25)">
</text><text class="terminal-3077581661-r1" x="1708" y="654.4" textLength="12.2" clip-path="url(#terminal-3077581661-line-26)">
</text><text class="terminal-3077581661-r4" x="170.8" y="678.8" textLength="122" clip-path="url(#terminal-3077581661-line-27)">&#160;gemini-3&#160;</text><text class="terminal-3077581661-r4" x="292.8" y="678.8" textLength="122" clip-path="url(#terminal-3077581661-line-27)">&#160;claude-s&#160;</text><text class="terminal-3077581661-r4" x="414.8" y="678.8" textLength="122" clip-path="url(#terminal-3077581661-line-27)">&#160;gpt-5.4-&#160;</text><text class="terminal-3077581661-r4" x="536.8" y="678.8" textLength="122" clip-path="url(#terminal-3077581661-line-27)">&#160;mistral-&#160;</text><text class="terminal-3077581661-r1" x="1708" y="678.8" textLength="12.2" clip-path="url(#terminal-3077581661-line-27)">
</text><text class="terminal-3077581661-r5" x="48.8" y="703.2" textLength="122" clip-path="url(#terminal-3077581661-line-28)">&#160;gemini-3&#160;</text><text class="terminal-3077581661-r5" x="170.8" y="703.2" textLength="122" clip-path="url(#terminal-3077581661-line-28)">&#160;·&#160;&#160;&#160;&#160;&#160;&#160;&#160;&#160;</text><text class="terminal-3077581661-r5" x="292.8" y="703.2" textLength="122" clip-path="url(#terminal-3077581661-line-28)">&#160;1&#160;&#160;&#160;&#160;&#160;&#160;&#160;&#160;</text><text class="terminal-3077581661-r5" x="414.8" y="703.2" textLength="122" clip-path="url(#terminal-3077581661-line-28)">&#160;3&#160;&#160;&#160;&#160;&#160;&#160;&#160;&#160;</text><text class="terminal-3077581661-r5" x="536.8" y="703.2" textLength="122" clip-path="url(#terminal-3077581661-line-28)">&#160;3&#160;&#160;&#160;&#160;&#160;&#160;&#160;&#160;</text><text class="terminal-3077581661-r1" x="1708" y="703.2" textLength="12.2" clip-path="url(#terminal-3077581661-line-28)">
</text><text class="terminal-3077581661-r5" x="48.8" y="727.6" textLength="122" clip-path="url(#terminal-3077581661-line-29)">&#160;claude-s&#160;</text><text class="terminal-3077581661-r5" x="170.8" y="727.6" textLength="122" clip-path="url(#terminal-3077581661-line-29)">&#160;1&#160;&#160;&#160;&#160;&#160;&#160;&#160;&#160;</text><text class="terminal-3077581661-r5" x="292.8" y="727.6" textLength="122" clip-path="url(#terminal-3077581661-line-29)">&#160;·&#160;&#160;&#160;&#160;&#160;&#160;&#160;&#160;</text><text class="terminal-3077581661-r5" x="414.8" y="727.6" textLength="122" clip-path="url(#terminal-3077581661-line-29)">&#160;4&#160;&#160;&#160;&#160;&#160;&#160;&#160;&#160;</text><text class="terminal-3077581661-r5" x="536.8" y="727.6" textLength="122" clip-path="url(#terminal-3077581661-line-29)">&#160;4&#160;&#160;&#160;&#160;&#160;&#160;&#160;&#160;</text><text class="terminal-3077581661-r1" x="1708" y="727.6" textLength="12.2" clip-path="url(#terminal-3077581661-line-29)">
</text><text class="terminal-3077581661-r5" x="48.8" y="752" textLength="122" clip-path="url(#terminal-3077581661-line-30)">&#160;gpt-5.4-&#160;</text><text class="terminal-3077581661-r5" x="170.8" y="752" textLength="122" clip-path="url(#terminal-3077581661-line-30)">&#160;0&#160;&#160;&#160;&#160;&#160;&#160;&#160;&#160;</text><text class="terminal-3077581661-r5" x="292.8" y="752" textLength="122" clip-path="url(#terminal-3077581661-line-30)">&#160;0&#160;&#160;&#160;&#160;&#160;&#160;&#160;&#160;</text><text class="terminal-3077581661-r5" x="414.8" y="752" textLength="122" clip-path="url(#terminal-3077581661-line-30)">&#160;·&#160;&#160;&#160;&#160;&#160;&#160;&#160;&#160;</text><text class="terminal-3077581661-r5" x="536.8" y="752" textLength="122" clip-path="url(#terminal-3077581661-line-30)">&#160;2&#160;&#160;&#160;&#160;&#160;&#160;&#160;&#160;</text><text class="terminal-3077581661-r1" x="1708" y="752" textLength="12.2" clip-path="url(#terminal-3077581661-line-30)">
</text><text class="terminal-3077581661-r5" x="48.8" y="776.4" textLength="122" clip-path="url(#terminal-3077581661-line-31)">&#160;mistral-&#160;</text><text class="terminal-3077581661-r5" x="170.8" y="776.4" textLength="122" clip-path="url(#terminal-3077581661-line-31)">&#160;0&#160;&#160;&#160;&#160;&#160;&#160;&#160;&#160;</text><text class="terminal-3077581661-r5" x="292.8" y="776.4" textLength="122" clip-path="url(#terminal-3077581661-line-31)">&#160;0&#160;&#160;&#160;&#160;&#160;&#160;&#160;&#160;</text><text class="terminal-3077581661-r5" x="414.8" y="776.4" textLength="122" clip-path="url(#terminal-3077581661-line-31)">&#160;1&#160;&#160;&#160;&#160;&#160;&#160;&#160;&#160;</text><text class="terminal-3077581661-r5" x="536.8" y="776.4" textLength="122" clip-path="url(#terminal-3077581661-line-31)">&#160;·&#160;&#160;&#160;&#160;&#160;&#160;&#160;&#160;</text><text class="terminal-3077581661-r1" x="1708" y="776.4" textLength="12.2" clip-path="url(#terminal-3077581661-line-31)">
</text><text class="terminal-3077581661-r5" x="48.8" y="800.8" textLength="902.8" clip-path="url(#terminal-3077581661-line-32)">battle&#160;log&#160;→&#160;examples/quickstart/battles.jsonl&#160;&#160;&#160;·&#160;&#160;&#160;manifest&#160;→&#160;*.run.json</text><text class="terminal-3077581661-r1" x="1708" y="800.8" textLength="12.2" clip-path="url(#terminal-3077581661-line-32)">
</text><text class="terminal-3077581661-r1" x="1708" y="825.2" textLength="12.2" clip-path="url(#terminal-3077581661-line-33)">
</text><text class="terminal-3077581661-r6" x="48.8" y="849.6" textLength="536.8" clip-path="url(#terminal-3077581661-line-34)">ENTER&#160;exit&#160;·&#160;B&#160;battle&#160;browser&#160;·&#160;s&#160;screenshot</text><text class="terminal-3077581661-r1" x="1708" y="849.6" textLength="12.2" clip-path="url(#terminal-3077581661-line-34)">
</text><text class="terminal-3077581661-r1" x="1708" y="874" textLength="12.2" clip-path="url(#terminal-3077581661-line-35)">
</text><text class="terminal-3077581661-r1" x="1708" y="898.4" textLength="12.2" clip-path="url(#terminal-3077581661-line-36)">
</text>
    </g>
    </g>
</svg>
