<svg xmlns="http://www.w3.org/2000/svg" width="12" height="12" viewBox="0 0 12 12" fill="none">
  <path
    d="M4.00293 7.20703C4.27924 7.20703 4.41785 7.20694 4.52344 7.26074C4.61624 7.30806 4.69192 7.38377 4.73926 7.47656C4.79309 7.58221 4.79297 7.72143 4.79297 7.99805V8.18945C4.79297 8.44539 4.79259 8.57359 4.83887 8.67285C4.88794 8.77808 4.97289 8.86303 5.07812 8.91211C5.17725 8.95819 5.30523 8.95801 5.56055 8.95801C5.81622 8.95801 5.94475 8.95777 6.04395 9.00391C6.14918 9.05299 6.23413 9.13794 6.2832 9.24316C6.32943 9.34241 6.3291 9.47182 6.3291 9.72949C6.3291 9.98688 6.32942 10.1157 6.2832 10.2148C6.23413 10.3201 6.14918 10.405 6.04395 10.4541C5.94475 10.5002 5.81621 10.5 5.56055 10.5C5.30522 10.5 5.17725 10.5002 5.07812 10.4541C4.97289 10.405 4.88794 10.3201 4.83887 10.2148C4.79261 10.1157 4.79297 9.98731 4.79297 9.73145C4.79297 9.47586 4.79226 9.34822 4.74609 9.24902C4.69705 9.14388 4.61294 9.05886 4.50781 9.00977C4.40857 8.96349 4.28034 8.96387 4.02441 8.96387H3.82715C3.55061 8.96387 3.41228 8.96295 3.30664 8.90918C3.21371 8.86181 3.13817 8.78631 3.09082 8.69336C3.03708 8.58775 3.03613 8.4493 3.03613 8.17285V7.99805C3.03613 7.72143 3.03699 7.58221 3.09082 7.47656C3.13818 7.38386 3.21388 7.30801 3.30664 7.26074C3.41223 7.20714 3.55093 7.20703 3.82715 7.20703H4.00293ZM9.73145 5.6709C9.98733 5.6709 10.1156 5.67057 10.2148 5.7168C10.3201 5.76587 10.405 5.85082 10.4541 5.95605C10.5002 6.05521 10.5 6.18412 10.5 6.44141C10.5 6.69911 10.5003 6.8285 10.4541 6.92773C10.405 7.03297 10.3201 7.11792 10.2148 7.16699C10.1156 7.21318 9.98725 7.21289 9.73145 7.21289C9.47614 7.21289 9.34818 7.21275 9.24902 7.25879C9.1438 7.30786 9.05885 7.39281 9.00977 7.49805C8.96351 7.59728 8.96387 7.72554 8.96387 7.98145V8.17285C8.96387 8.44932 8.96291 8.58774 8.90918 8.69336C8.86181 8.78631 8.78631 8.86181 8.69336 8.90918C8.58774 8.96294 8.44943 8.96387 8.17285 8.96387H7.99805C7.72141 8.96387 7.58221 8.96299 7.47656 8.90918C7.38388 8.86179 7.308 8.78613 7.26074 8.69336C7.20716 8.58779 7.20703 8.44903 7.20703 8.17285V7.99805C7.20703 7.72143 7.20691 7.58221 7.26074 7.47656C7.30807 7.38377 7.38377 7.30807 7.47656 7.26074C7.58221 7.20691 7.72141 7.20703 7.99805 7.20703H8.19531C8.45111 7.20703 8.57954 7.2074 8.67871 7.16113C8.78384 7.11203 8.86797 7.02699 8.91699 6.92188C8.96315 6.82272 8.96387 6.69495 8.96387 6.43945C8.96387 6.1836 8.96353 6.05528 9.00977 5.95605C9.05885 5.85082 9.1438 5.76587 9.24902 5.7168C9.34819 5.67075 9.47612 5.6709 9.73145 5.6709ZM6 5.23145C6.23004 5.23145 6.34513 5.23191 6.43652 5.26758C6.5722 5.32056 6.67944 5.4278 6.73242 5.56348C6.76808 5.65488 6.76855 5.76997 6.76855 6C6.76855 6.23005 6.76808 6.34513 6.73242 6.43652C6.67944 6.57221 6.57221 6.67944 6.43652 6.73242C6.34513 6.76809 6.23004 6.76855 6 6.76855C5.76996 6.76855 5.65488 6.76809 5.56348 6.73242C5.42779 6.67945 5.32056 6.57221 5.26758 6.43652C5.23191 6.34513 5.23145 6.23005 5.23145 6C5.23145 5.76997 5.23191 5.65488 5.26758 5.56348C5.32057 5.4278 5.42779 5.32056 5.56348 5.26758C5.65488 5.23191 5.76996 5.23145 6 5.23145ZM4.00293 3.03613C4.27922 3.03613 4.41785 3.03702 4.52344 3.09082C4.61614 3.13819 4.69199 3.21387 4.73926 3.30664C4.79286 3.41224 4.79297 3.55093 4.79297 3.82715V4.00293C4.79297 4.27922 4.79306 4.41785 4.73926 4.52344C4.69193 4.61623 4.61623 4.69193 4.52344 4.73926C4.41785 4.79306 4.27922 4.79297 4.00293 4.79297H3.80469C3.5489 4.79297 3.4205 4.7926 3.32129 4.83887C3.21621 4.88797 3.13203 4.973 3.08301 5.07812C3.03684 5.17729 3.03613 5.30505 3.03613 5.56055C3.03613 5.81638 3.03646 5.94473 2.99023 6.04395C2.94116 6.14918 2.85621 6.23413 2.75098 6.2832C2.65184 6.32926 2.52393 6.3291 2.26855 6.3291C2.01268 6.3291 1.88439 6.32945 1.78516 6.2832C1.67992 6.23413 1.59497 6.14918 1.5459 6.04395C1.49978 5.94479 1.5 5.81587 1.5 5.55859C1.5 5.30087 1.49964 5.17149 1.5459 5.07227C1.59494 4.96709 1.68001 4.88307 1.78516 4.83398C1.8844 4.78771 2.01263 4.78711 2.26855 4.78711C2.52391 4.78711 2.65184 4.78725 2.75098 4.74121C2.85621 4.69214 2.94116 4.60719 2.99023 4.50195C3.03648 4.40272 3.03613 4.27443 3.03613 4.01855V3.82715C3.03613 3.55066 3.03706 3.41228 3.09082 3.30664C3.13817 3.21371 3.21371 3.13817 3.30664 3.09082C3.41227 3.03706 3.55065 3.03613 3.82715 3.03613H4.00293ZM6.44141 1.5C6.69908 1.5 6.82851 1.49966 6.92773 1.5459C7.03298 1.59497 7.11792 1.67992 7.16699 1.78516C7.2132 1.88437 7.21289 2.01276 7.21289 2.26855C7.21289 2.52389 7.21275 2.65184 7.25879 2.75098C7.30786 2.85621 7.39281 2.94116 7.49805 2.99023C7.59729 3.0365 7.72553 3.03613 7.98145 3.03613H8.17285C8.44938 3.03613 8.58774 3.03707 8.69336 3.09082C8.78631 3.13817 8.86181 3.21371 8.90918 3.30664C8.96293 3.41228 8.96387 3.55064 8.96387 3.82715V4.00293C8.96387 4.27922 8.96296 4.41785 8.90918 4.52344C8.8618 4.61614 8.78614 4.69199 8.69336 4.73926C8.58779 4.79284 8.4491 4.79297 8.17285 4.79297H7.99805C7.72141 4.79297 7.58221 4.79309 7.47656 4.73926C7.38377 4.69192 7.30806 4.61623 7.26074 4.52344C7.20694 4.41785 7.20703 4.27922 7.20703 4.00293V3.80469C7.20703 3.54889 7.20739 3.4205 7.16113 3.32129C7.11203 3.21622 7.02699 3.13202 6.92188 3.08301C6.82271 3.03685 6.69494 3.03613 6.43945 3.03613C6.18358 3.03613 6.05528 3.03648 5.95605 2.99023C5.85082 2.94116 5.76587 2.85621 5.7168 2.75098C5.67075 2.65184 5.6709 2.52391 5.6709 2.26855C5.6709 2.0127 5.67056 1.88438 5.7168 1.78516C5.76587 1.67992 5.85082 1.59497 5.95605 1.5459C6.05521 1.49976 6.18412 1.5 6.44141 1.5Z"
    fill="white" />
</svg>
